<svg width="48" height="48" viewBox="0 0 48 48" fill="none" xmlns="http://www.w3.org/2000/svg">
<path d="M4.788 31.518C4.788 31.518 19.896 40.01 22.968 41.736C23.298 41.922 23.634 42 23.952 42C24.308 42 24.64 41.902 24.92 41.746C28.012 40.02 43.23 31.52 43.23 31.52C43.722 31.244 44 30.734 44 30.208C44 29.076 42.772 28.34 41.768 28.9C41.768 28.9 27.664 36.816 24.69 38.44C24.268 38.67 23.802 38.762 23.246 38.452C19.948 36.596 6.258 28.902 6.258 28.902C5.254 28.338 4.024 29.072 4.024 30.208C4.024 30.732 4.298 31.242 4.788 31.518ZM4.788 25.292C4.788 25.292 19.896 33.784 22.968 35.51C23.298 35.696 23.634 35.774 23.952 35.774C24.308 35.774 24.64 35.676 24.92 35.52C28.012 33.794 43.23 25.294 43.23 25.294C43.722 25.018 44 24.508 44 23.982C44 22.85 42.772 22.114 41.768 22.674C41.768 22.674 27.664 30.59 24.69 32.214C24.268 32.444 23.802 32.536 23.246 32.226C19.948 30.37 6.258 22.676 6.258 22.676C5.254 22.112 4.024 22.846 4.024 23.982C4.024 24.506 4.298 25.016 4.788 25.292ZM25.33 6.382C24.838 6.126 24.388 6 23.946 6C23.5 6 23.06 6.13 22.596 6.382L4.828 16.392C4.276 16.758 4 17.28 4 17.788C4 18.3 4.278 18.798 4.828 19.116L22.596 29.128C23.038 29.394 23.49 29.534 23.952 29.534C24.398 29.534 24.856 29.404 25.33 29.128L43.098 19.116C43.688 18.784 44 18.274 44 17.756C44 17.256 43.71 16.75 43.098 16.392L25.33 6.382ZM8.522 17.754L23.964 9.056L39.404 17.754L23.964 26.454L8.522 17.754Z" fill="white"/>
</svg>
