<svg width="500" height="502" viewBox="0 0 500 502" fill="none" xmlns="http://www.w3.org/2000/svg">
<g clip-path="url(#clip0_21_222)">
<path d="M48.083 422.467L43.6794 405.1C35.8717 401.791 27.8835 398.925 19.753 396.515L19.1972 404.587L16.9431 395.694C6.85978 392.812 0 391.544 0 391.544C0 391.544 9.26363 426.778 28.6998 453.715L51.3447 457.693L33.7525 460.23C36.1974 463.172 38.8248 465.957 41.6192 468.569C69.8901 494.81 101.379 506.85 111.951 495.46C122.523 484.07 108.175 453.564 79.9042 427.326C71.14 419.19 60.1304 412.662 49.1094 407.523L48.083 422.467Z" fill="#3A3A3A"/>
<path d="M89.9613 403.602L95.1691 386.459C90.1962 379.591 84.8398 373.008 79.1255 366.743L74.4776 373.365L77.1439 364.588C70.0009 356.911 64.7843 352.28 64.7843 352.28C64.7843 352.28 54.5037 387.231 57.2157 420.337L74.5447 435.447L58.1709 428.525C58.7438 432.307 59.5541 436.05 60.5969 439.731C71.234 476.809 91.9664 503.392 106.904 499.106C121.841 494.821 125.328 461.29 114.69 424.213C111.393 412.718 105.342 401.439 98.5644 391.343L89.9613 403.602Z" fill="#3A3A3A"/>
<path d="M348.897 118.805H346.151V43.5545C346.151 37.8349 345.024 32.1712 342.835 26.8869C340.646 21.6027 337.438 16.8012 333.394 12.7568C329.349 8.71241 324.548 5.50421 319.264 3.31539C313.979 1.12657 308.316 0 302.596 0H143.163C131.611 0 120.533 4.58877 112.365 12.7568C104.197 20.9249 99.6083 32.0031 99.6083 43.5545V456.39C99.6083 462.11 100.735 467.774 102.924 473.058C105.112 478.342 108.321 483.144 112.365 487.188C116.41 491.233 121.211 494.441 126.495 496.63C131.779 498.818 137.443 499.945 143.163 499.945H302.596C314.147 499.945 325.225 495.356 333.393 487.188C341.561 479.02 346.15 467.942 346.15 456.39V172.369H348.897L348.897 118.805Z" fill="#4B4646"/>
<path d="M304.353 11.3271H283.544C284.501 13.6737 284.866 16.2195 284.607 18.7405C284.349 21.2615 283.474 23.6801 282.06 25.7834C280.647 27.8866 278.738 29.6099 276.501 30.8015C274.264 31.993 271.769 32.6161 269.235 32.6161H177.897C175.363 32.6159 172.868 31.9926 170.632 30.801C168.395 29.6094 166.486 27.8861 165.073 25.7828C163.659 23.6796 162.785 21.261 162.526 18.7402C162.267 16.2193 162.633 13.6736 163.59 11.3271H144.152C135.526 11.3271 127.253 14.754 121.153 20.8538C115.053 26.9536 111.626 35.2268 111.626 43.8532V456.09C111.626 464.716 115.053 472.989 121.153 479.089C127.253 485.189 135.526 488.616 144.152 488.616H304.353C312.98 488.616 321.253 485.189 327.353 479.089C333.453 472.989 336.879 464.716 336.879 456.09V43.8526C336.879 35.2262 333.452 26.9533 327.353 20.8536C321.253 14.7539 312.98 11.3271 304.353 11.3271Z" fill="#1E1C1C"/>
<path d="M203.839 175.541C203.838 172.66 204.597 169.829 206.038 167.334C207.479 164.839 209.552 162.767 212.049 161.328C209.554 159.887 206.723 159.128 203.842 159.127C200.961 159.127 198.13 159.885 195.635 161.326C193.14 162.766 191.067 164.838 189.627 167.333C188.186 169.828 187.427 172.659 187.427 175.54C187.427 178.421 188.186 181.252 189.627 183.747C191.067 186.242 193.14 188.314 195.635 189.755C198.13 191.195 200.961 191.953 203.842 191.953C206.723 191.953 209.554 191.194 212.049 189.753C209.553 188.314 207.48 186.243 206.038 183.748C204.597 181.253 203.839 178.422 203.839 175.541Z" fill="#CCCCCC"/>
<path d="M224.472 175.541C224.471 172.66 225.23 169.829 226.671 167.334C228.112 164.838 230.185 162.767 232.682 161.328C230.187 159.887 227.356 159.128 224.475 159.127C221.594 159.127 218.763 159.885 216.268 161.326C213.773 162.766 211.7 164.838 210.26 167.333C208.819 169.828 208.06 172.659 208.06 175.54C208.06 178.421 208.819 181.252 210.26 183.747C211.7 186.242 213.773 188.314 216.268 189.755C218.763 191.195 221.594 191.953 224.475 191.953C227.356 191.953 230.187 191.194 232.682 189.753C230.186 188.314 228.113 186.243 226.671 183.748C225.23 181.253 224.472 178.422 224.472 175.541Z" fill="#CCCCCC"/>
<path d="M244.637 191.953C253.701 191.953 261.049 184.605 261.049 175.54C261.049 166.476 253.701 159.128 244.637 159.128C235.572 159.128 228.224 166.476 228.224 175.54C228.224 184.605 235.572 191.953 244.637 191.953Z" fill="#FFCB74"/>
<path d="M272.066 226.804H176.409C175.499 226.803 174.625 226.441 173.981 225.797C173.338 225.153 172.975 224.28 172.974 223.369V127.712C172.975 126.801 173.338 125.928 173.981 125.284C174.625 124.64 175.499 124.278 176.409 124.277H272.066C272.977 124.278 273.85 124.64 274.494 125.284C275.138 125.928 275.5 126.801 275.501 127.712V223.369C275.5 224.28 275.138 225.153 274.494 225.797C273.85 226.441 272.977 226.803 272.066 226.804ZM176.409 125.652C175.863 125.652 175.339 125.87 174.953 126.256C174.566 126.642 174.349 127.166 174.348 127.713V223.37C174.349 223.916 174.566 224.44 174.953 224.826C175.339 225.213 175.863 225.43 176.409 225.431H272.066C272.613 225.43 273.137 225.213 273.523 224.826C273.909 224.44 274.127 223.916 274.127 223.37V127.713C274.127 127.166 273.909 126.642 273.523 126.256C273.137 125.87 272.613 125.652 272.066 125.652H176.409Z" fill="#CCCCCC"/>
<path d="M293.425 300.13H146.716V301.504H293.425V300.13Z" fill="#CCCCCC"/>
<path d="M151.349 291.551C153.908 291.551 155.982 289.476 155.982 286.918C155.982 284.359 153.908 282.284 151.349 282.284C148.79 282.284 146.716 284.359 146.716 286.918C146.716 289.476 148.79 291.551 151.349 291.551Z" fill="#FFCB74"/>
<path d="M293.425 346.459H146.716V347.833H293.425V346.459Z" fill="#CCCCCC"/>
<path d="M151.349 337.88C153.908 337.88 155.982 335.806 155.982 333.247C155.982 330.688 153.908 328.614 151.349 328.614C148.79 328.614 146.716 330.688 146.716 333.247C146.716 335.806 148.79 337.88 151.349 337.88Z" fill="#FFCB74"/>
<path d="M290.74 399.216H244.376C243.575 399.215 242.807 398.896 242.241 398.33C241.675 397.764 241.356 396.996 241.355 396.195V379.945C241.356 379.144 241.675 378.376 242.241 377.81C242.807 377.243 243.575 376.925 244.376 376.924H290.74C291.541 376.925 292.309 377.243 292.875 377.81C293.442 378.376 293.76 379.144 293.761 379.945V396.195C293.76 396.996 293.442 397.764 292.875 398.33C292.309 398.896 291.541 399.215 290.74 399.216Z" fill="#FFCB74"/>
<path d="M166.462 291.551C169.021 291.551 171.095 289.476 171.095 286.918C171.095 284.359 169.021 282.284 166.462 282.284C163.903 282.284 161.829 284.359 161.829 286.918C161.829 289.476 163.903 291.551 166.462 291.551Z" fill="#FFCB74"/>
<path d="M181.575 291.551C184.134 291.551 186.208 289.476 186.208 286.918C186.208 284.359 184.134 282.284 181.575 282.284C179.016 282.284 176.942 284.359 176.942 286.918C176.942 289.476 179.016 291.551 181.575 291.551Z" fill="#FFCB74"/>
<path d="M166.462 337.88C169.021 337.88 171.095 335.806 171.095 333.247C171.095 330.688 169.021 328.614 166.462 328.614C163.903 328.614 161.829 330.688 161.829 333.247C161.829 335.806 163.903 337.88 166.462 337.88Z" fill="#FFCB74"/>
<path d="M181.575 337.88C184.134 337.88 186.208 335.806 186.208 333.247C186.208 330.688 184.134 328.614 181.575 328.614C179.016 328.614 176.942 330.688 176.942 333.247C176.942 335.806 179.016 337.88 181.575 337.88Z" fill="#FFCB74"/>
<path d="M498.133 501.496H16.1644C15.1326 501.496 14.2969 501.13 14.2969 500.679C14.2969 500.228 15.1326 499.86 16.1644 499.86H498.133C499.164 499.86 500 500.227 500 500.679C500 501.13 499.164 501.496 498.133 501.496Z" fill="#3F3D56"/>
<path d="M379.055 328.565C379.384 328.715 379.701 328.892 380.002 329.093L410.11 316.243L411.185 308.311L423.215 308.238L422.505 326.428L382.765 336.938C382.681 337.214 382.581 337.485 382.465 337.749C381.89 338.975 380.966 340.004 379.809 340.706C378.651 341.409 377.312 341.754 375.959 341.698C374.607 341.642 373.301 341.187 372.205 340.391C371.11 339.596 370.274 338.494 369.803 337.225C369.332 335.955 369.246 334.575 369.557 333.257C369.867 331.939 370.56 330.743 371.549 329.817C372.537 328.892 373.777 328.28 375.113 328.057C376.448 327.834 377.82 328.011 379.055 328.565Z" fill="#FFB8B8"/>
<path d="M427.591 493.403H419.361L415.446 461.66L427.592 461.661L427.591 493.403Z" fill="#FFB8B8"/>
<path d="M413.482 491.052H429.354V501.045H403.489C403.489 498.395 404.542 495.853 406.416 493.979C408.29 492.105 410.832 491.052 413.482 491.052Z" fill="#2F2E41"/>
<path d="M459.597 491.078L451.407 491.885L444.398 460.679L456.486 459.488L459.597 491.078Z" fill="#FFB8B8"/>
<path d="M445.327 490.121L461.122 488.565L462.101 498.51L436.361 501.045C436.232 499.739 436.362 498.421 436.743 497.165C437.124 495.909 437.749 494.741 438.581 493.726C439.414 492.712 440.438 491.871 441.595 491.253C442.753 490.634 444.021 490.249 445.327 490.121Z" fill="#2F2E41"/>
<path d="M429.881 274.643C438.987 274.643 446.369 267.262 446.369 258.156C446.369 249.05 438.987 241.669 429.881 241.669C420.776 241.669 413.394 249.05 413.394 258.156C413.394 267.262 420.776 274.643 429.881 274.643Z" fill="#FFB8B8"/>
<path d="M417.522 486.984C416.814 486.986 416.129 486.738 415.587 486.284C415.045 485.83 414.68 485.199 414.558 484.502C410.298 460.856 396.374 383.538 396.041 381.397C396.034 381.347 396.031 381.298 396.031 381.248V375.483C396.03 375.273 396.096 375.068 396.218 374.898L398.058 372.321C398.145 372.197 398.26 372.095 398.393 372.022C398.526 371.95 398.674 371.908 398.826 371.902C409.312 371.41 443.656 369.969 445.315 372.042C446.982 374.125 446.393 380.438 446.258 381.682L446.265 381.812L461.694 480.486C461.815 481.273 461.621 482.076 461.154 482.721C460.688 483.366 459.986 483.801 459.201 483.933L449.563 485.521C448.846 485.636 448.11 485.49 447.491 485.109C446.872 484.728 446.41 484.137 446.19 483.445C443.209 473.92 433.215 441.88 429.751 429.483C429.729 429.404 429.68 429.336 429.612 429.292C429.544 429.247 429.462 429.229 429.381 429.24C429.3 429.251 429.227 429.292 429.173 429.354C429.12 429.415 429.092 429.494 429.093 429.576C429.266 441.394 429.684 471.546 429.828 481.96L429.844 483.082C429.85 483.841 429.572 484.576 429.063 485.139C428.554 485.703 427.853 486.056 427.097 486.127L417.804 486.972C417.709 486.98 417.615 486.984 417.522 486.984Z" fill="#2F2E41"/>
<path d="M419.418 281.126C416.54 282.836 414.819 285.98 413.831 289.178C412.002 295.1 410.901 301.222 410.552 307.41L409.508 325.937L396.582 375.054C407.785 384.533 414.247 382.379 429.328 374.626C444.408 366.872 446.131 377.211 446.131 377.211L449.147 335.418L453.455 289.749C452.488 288.585 451.394 287.532 450.192 286.612C446.209 283.515 441.576 281.363 436.641 280.317C431.706 279.271 426.598 279.358 421.701 280.573L419.418 281.126Z" fill="#FFCB74"/>
<path d="M415.219 338.485C415.567 338.615 415.904 338.773 416.227 338.957L445.997 324.057L446.491 315.984L458.771 315.137L459.429 333.539L419.645 346.696C419.32 348.089 418.579 349.35 417.52 350.312C416.461 351.274 415.134 351.89 413.716 352.079C412.298 352.269 410.855 352.022 409.581 351.371C408.307 350.721 407.261 349.698 406.582 348.439C405.903 347.179 405.624 345.743 405.781 344.321C405.938 342.899 406.525 341.559 407.462 340.478C408.4 339.398 409.644 338.628 411.03 338.272C412.416 337.916 413.877 337.99 415.219 338.485Z" fill="#FFB8B8"/>
<path d="M453.24 289.959C460.564 292.544 461.855 320.551 461.855 320.551C453.238 315.812 442.897 323.567 442.897 323.567C442.897 323.567 440.743 316.243 438.157 306.764C437.377 304.098 437.283 301.277 437.886 298.565C438.489 295.853 439.768 293.338 441.604 291.253C441.604 291.253 445.915 287.372 453.24 289.959Z" fill="#FFCB74"/>
<path d="M444.665 262.516C442.611 260.872 439.808 263.86 439.808 263.86L438.164 249.069C438.164 249.069 427.893 250.299 421.32 248.659C414.746 247.018 413.719 254.616 413.719 254.616C413.38 251.547 413.311 248.454 413.514 245.372C413.924 241.674 419.266 237.977 428.715 235.511C438.164 233.046 443.094 243.729 443.094 243.729C449.669 247.015 446.719 264.16 444.665 262.516Z" fill="#2F2E41"/>
</g>
<defs>
<clipPath id="clip0_21_222">
<rect width="500" height="501.496" fill="white"/>
</clipPath>
</defs>
</svg>
