<svg width="40" height="40" viewBox="0 0 40 40" fill="none" xmlns="http://www.w3.org/2000/svg">
<path fill-rule="evenodd" clip-rule="evenodd" d="M13.3334 5.00016C13.3334 5.44219 13.5089 5.86611 13.8215 6.17867C14.1341 6.49123 14.558 6.66683 15 6.66683H24.6584C26.515 6.66683 27.19 6.86016 27.8684 7.2235C28.5467 7.58683 29.08 8.12016 29.4434 8.7985C29.8067 9.47683 30 10.1502 30 12.0085V28.3335C30 28.7755 30.1756 29.1994 30.4882 29.512C30.8007 29.8246 31.2247 30.0002 31.6667 30.0002C32.1087 30.0002 32.5326 29.8246 32.8452 29.512C33.1578 29.1994 33.3334 28.7755 33.3334 28.3335V11.8802C33.3334 8.9085 33.0234 7.83016 32.4434 6.7435C31.875 5.66984 30.997 4.79184 29.9234 4.2235C28.8367 3.6435 27.7584 3.3335 24.7867 3.3335H15C14.558 3.3335 14.1341 3.50909 13.8215 3.82165C13.5089 4.13421 13.3334 4.55814 13.3334 5.00016ZM21.325 10.0002H12.0084C10.15 10.0002 9.47669 10.1935 8.79835 10.5568C8.12733 10.9121 7.57858 11.4608 7.22335 12.1318C6.86002 12.8102 6.66669 13.4835 6.66669 15.3418V34.8668C6.66682 35.1806 6.75552 35.4879 6.92257 35.7535C7.08963 36.0191 7.32826 36.2321 7.61102 36.3681C7.89378 36.5041 8.20918 36.5575 8.52095 36.5222C8.83271 36.4869 9.12818 36.3643 9.37335 36.1685L16.6667 30.3402L23.96 36.1685C24.2051 36.3642 24.5004 36.4868 24.812 36.5221C25.1236 36.5575 25.4389 36.5043 25.7216 36.3685C26.0043 36.2327 26.243 36.0199 26.4101 35.7546C26.5773 35.4892 26.6662 35.1821 26.6667 34.8685V15.3402C26.6667 13.4818 26.4734 12.8085 26.11 12.1302C25.7548 11.4591 25.206 10.9104 24.535 10.5552C23.8567 10.1935 23.1834 10.0002 21.325 10.0002Z" fill="white"/>
</svg>
