<svg width="70" height="71" viewBox="0 0 70 71" fill="none" xmlns="http://www.w3.org/2000/svg">
<path d="M70 4.80735C70 2.94846 68.5261 0.918457 66.1111 0.918457H3.88889C1.47778 0.918457 0 2.93679 0 4.80735V67.0296C0 69.4446 2.02222 70.9185 3.88889 70.9185H66.1111C67.97 70.9185 70 69.4446 70 67.0296V4.80735ZM58.3333 48.5573C58.3333 50.1673 57.0267 51.474 55.4167 51.474H37.9167C36.3067 51.474 35 50.1673 35 48.5573C35 46.9473 36.3067 45.6407 37.9167 45.6407H55.4167C57.0267 45.6407 58.3333 46.9473 58.3333 48.5573ZM12.5533 46.469C11.9661 45.944 11.6667 45.2207 11.6667 44.4896C11.6667 43.0312 12.8489 41.8373 14.3228 41.8373C14.9528 41.8373 15.5828 42.059 16.0922 42.5101L18.9933 45.0962L25.4489 38.0379C25.9778 37.4662 26.6894 37.1785 27.4089 37.1785C28.8906 37.1785 30.0689 38.3723 30.0689 39.8307C30.0689 40.4646 29.8394 41.1062 29.3728 41.6157L21.1439 50.6107C20.6228 51.1823 19.9033 51.474 19.1839 51.474C18.5539 51.474 17.92 51.2523 17.4144 50.8012L12.5533 46.469ZM58.3333 35.9262C58.3333 37.5362 57.0267 38.8429 55.4167 38.8429H37.9167C36.3067 38.8429 35 37.5362 35 35.9262C35 34.3162 36.3067 33.0096 37.9167 33.0096H55.4167C57.0267 33.0096 58.3333 34.3162 58.3333 35.9262ZM12.5533 29.6535V29.6573C11.9661 29.1323 11.6667 28.4051 11.6667 27.6779C11.6667 26.2157 12.8489 25.0257 14.3228 25.0257C14.9528 25.0257 15.5828 25.2473 16.0922 25.6985L18.9933 28.2807L25.4489 21.2223C25.9778 20.6507 26.6894 20.3629 27.4089 20.3629C28.8906 20.3629 30.0689 21.5607 30.0689 23.0151C30.0689 23.6529 29.8394 24.2946 29.3728 24.804L21.1439 33.799C20.6228 34.3707 19.9033 34.6585 19.1839 34.6585C18.5539 34.6585 17.92 34.4368 17.4144 33.9857L12.5533 29.6535ZM58.3333 23.2796C58.3333 24.8896 57.0267 26.1962 55.4167 26.1962H37.9167C36.3067 26.1962 35 24.8896 35 23.2796C35 21.6696 36.3067 20.3629 37.9167 20.3629H55.4167C57.0267 20.3629 58.3333 21.6696 58.3333 23.2796Z" fill="#FFCB74"/>
</svg>
