<svg width="500" height="420" viewBox="0 0 500 420" fill="none" xmlns="http://www.w3.org/2000/svg">
<g clip-path="url(#clip0_21_259)">
<path d="M219.751 158.358L331.584 62.7029L332.103 64.107L220.664 159.426L219.751 158.358Z" fill="#2F2E41"/>
<path d="M341.096 84.3516C350.148 84.3516 357.485 77.0137 357.485 67.962C357.485 58.9104 350.148 51.5725 341.096 51.5725C332.044 51.5725 324.706 58.9104 324.706 67.962C324.706 77.0137 332.044 84.3516 341.096 84.3516Z" fill="#FFCB74"/>
<path d="M479.234 104.254H329.587C328.946 104.255 328.31 104.129 327.718 103.884C327.125 103.639 326.586 103.28 326.132 102.827C325.679 102.373 325.319 101.835 325.073 101.243C324.827 100.65 324.701 100.015 324.701 99.3736C324.701 98.7322 324.827 98.0971 325.073 97.5046C325.319 96.9121 325.679 96.3738 326.132 95.9206C326.586 95.4673 327.125 95.1079 327.718 94.863C328.31 94.6181 328.946 94.4924 329.587 94.4932H479.234C479.875 94.4924 480.51 94.6181 481.103 94.863C481.696 95.1079 482.235 95.4673 482.688 95.9206C483.142 96.3738 483.502 96.9121 483.748 97.5046C483.993 98.0971 484.12 98.7322 484.12 99.3736C484.12 100.015 483.993 100.65 483.748 101.243C483.502 101.835 483.142 102.373 482.688 102.827C482.235 103.28 481.696 103.639 481.103 103.884C480.51 104.129 479.875 104.255 479.234 104.254Z" fill="#FFCB74"/>
<path d="M479.234 123.539H329.587C328.293 123.539 327.051 123.025 326.136 122.11C325.221 121.194 324.706 119.953 324.706 118.659C324.706 117.364 325.221 116.123 326.136 115.207C327.051 114.292 328.293 113.778 329.587 113.778H479.234C480.528 113.778 481.77 114.292 482.685 115.207C483.6 116.123 484.114 117.364 484.114 118.659C484.114 119.953 483.6 121.194 482.685 122.11C481.77 123.025 480.528 123.539 479.234 123.539Z" fill="#FFCB74"/>
<path d="M394.455 142.825H329.587C328.293 142.825 327.051 142.31 326.136 141.395C325.221 140.48 324.706 139.238 324.706 137.944C324.706 136.649 325.221 135.408 326.136 134.493C327.051 133.577 328.293 133.063 329.587 133.063H394.455C395.75 133.063 396.991 133.577 397.906 134.493C398.822 135.408 399.336 136.649 399.336 137.944C399.336 139.238 398.822 140.48 397.906 141.395C396.991 142.31 395.75 142.825 394.455 142.825Z" fill="#FFCB74"/>
<path d="M368.719 203.496C374.923 203.496 379.953 198.467 379.953 192.262C379.953 186.058 374.923 181.029 368.719 181.029C362.515 181.029 357.485 186.058 357.485 192.262C357.485 198.467 362.515 203.496 368.719 203.496Z" fill="#828282"/>
<path d="M463.402 217.138H360.831C360.391 217.139 359.955 217.052 359.549 216.885C359.143 216.717 358.773 216.471 358.462 216.16C358.151 215.849 357.904 215.48 357.736 215.074C357.567 214.668 357.481 214.232 357.481 213.793C357.481 213.353 357.567 212.918 357.736 212.511C357.904 212.105 358.151 211.736 358.462 211.426C358.773 211.115 359.143 210.869 359.549 210.701C359.955 210.533 360.391 210.447 360.831 210.448H463.402C463.842 210.447 464.277 210.533 464.684 210.701C465.09 210.869 465.46 211.115 465.771 211.426C466.082 211.736 466.329 212.105 466.497 212.511C466.666 212.918 466.752 213.353 466.752 213.793C466.752 214.232 466.666 214.668 466.497 215.074C466.329 215.48 466.082 215.849 465.771 216.16C465.46 216.471 465.09 216.717 464.684 216.885C464.277 217.052 463.842 217.139 463.402 217.138Z" fill="#828282"/>
<path d="M386.306 230.357H360.831C359.944 230.355 359.095 230.002 358.468 229.375C357.842 228.748 357.49 227.898 357.49 227.011C357.49 226.125 357.842 225.275 358.468 224.647C359.095 224.02 359.944 223.667 360.831 223.666H386.306C387.193 223.667 388.043 224.02 388.669 224.647C389.295 225.275 389.647 226.125 389.647 227.011C389.647 227.898 389.295 228.748 388.669 229.375C388.043 230.002 387.193 230.355 386.306 230.357Z" fill="#828282"/>
<path d="M332.866 315.837C339.07 315.837 344.099 310.807 344.099 304.603C344.099 298.399 339.07 293.369 332.866 293.369C326.661 293.369 321.632 298.399 321.632 304.603C321.632 310.807 326.661 315.837 332.866 315.837Z" fill="#828282"/>
<path d="M427.549 329.478H324.977C324.537 329.479 324.102 329.393 323.695 329.225C323.289 329.057 322.92 328.811 322.609 328.5C322.297 328.19 322.051 327.821 321.882 327.415C321.714 327.008 321.627 326.573 321.627 326.133C321.627 325.694 321.714 325.258 321.882 324.852C322.051 324.446 322.297 324.077 322.609 323.766C322.92 323.455 323.289 323.209 323.695 323.041C324.102 322.874 324.537 322.787 324.977 322.788H427.549C427.988 322.787 428.424 322.874 428.83 323.041C429.237 323.209 429.606 323.455 429.917 323.766C430.228 324.077 430.475 324.446 430.643 324.852C430.812 325.258 430.899 325.694 430.899 326.133C430.899 326.573 430.812 327.008 430.643 327.415C430.475 327.821 430.228 328.19 429.917 328.5C429.606 328.811 429.237 329.057 428.83 329.225C428.424 329.393 427.988 329.479 427.549 329.478Z" fill="#828282"/>
<path d="M386.613 342.697H324.977C324.09 342.697 323.239 342.345 322.612 341.717C321.984 341.09 321.632 340.239 321.632 339.352C321.632 338.464 321.984 337.614 322.612 336.986C323.239 336.359 324.09 336.006 324.977 336.006H386.613C387.5 336.006 388.351 336.359 388.978 336.986C389.606 337.614 389.958 338.464 389.958 339.352C389.958 340.239 389.606 341.09 388.978 341.717C388.351 342.345 387.5 342.697 386.613 342.697Z" fill="#828282"/>
<path d="M369.439 355.916H324.977C324.09 355.916 323.239 355.563 322.612 354.936C321.984 354.308 321.632 353.457 321.632 352.57C321.632 351.683 321.984 350.832 322.612 350.205C323.239 349.577 324.09 349.225 324.977 349.225H369.439C370.327 349.225 371.178 349.577 371.805 350.205C372.432 350.832 372.785 351.683 372.785 352.57C372.785 353.457 372.432 354.308 371.805 354.936C371.178 355.563 370.327 355.916 369.439 355.916Z" fill="#828282"/>
<path d="M29.0496 393.325C11.5056 385.011 -1.56193 368.285 0.476543 349.904C16.2158 362.649 37.6442 369.766 59.7656 369.596C68.3816 369.529 78.031 368.653 84.2921 373.487C88.188 376.496 89.9454 381.272 90.1674 386.033C90.3894 390.794 89.2353 395.612 88.0877 400.368L88.4366 401.494C67.8378 402.806 46.5935 401.638 29.0496 393.325Z" fill="#828282"/>
<path d="M0.908501 349.858C7.69383 363.098 19.458 374.133 34.0782 380.593C37.2816 382.087 40.6924 383.089 44.1952 383.565C47.7624 383.938 51.3673 383.467 54.7187 382.189C57.8962 381.049 61.0283 379.564 64.3982 379.113C66.0481 378.882 67.7275 378.987 69.3359 379.421C70.9444 379.855 72.4488 380.608 73.7593 381.637C76.8732 384.058 78.7305 387.409 80.4136 390.752C82.2824 394.463 84.1549 398.35 87.8142 400.879C88.2576 401.186 87.6401 401.823 87.1974 401.517C80.8309 397.117 79.9121 389.159 74.8532 383.829C72.4926 381.342 69.2162 379.538 65.2834 379.828C61.8444 380.082 58.6133 381.611 55.405 382.789C52.1429 384.078 48.6426 384.652 45.1399 384.474C41.6085 384.163 38.1506 383.283 34.8996 381.87C27.8306 378.927 21.2869 374.856 15.5242 369.814C9.15765 364.308 3.90189 357.636 0.0396901 350.157C-0.194695 349.7 0.675651 349.404 0.908501 349.858Z" fill="#2A2A2E"/>
<path d="M29.1806 378.727C27.3338 380.905 24.8538 382.455 22.0856 383.158C19.3174 383.862 16.3987 383.685 13.7356 382.653C13.225 382.438 13.642 381.69 14.1532 381.905C16.631 382.87 19.349 383.034 21.925 382.375C24.5011 381.715 26.8055 380.265 28.5143 378.227C28.8732 377.791 29.5374 378.293 29.1806 378.727Z" fill="#2A2A2E"/>
<path d="M53.1757 382.951C52.8358 380.365 51.9522 377.88 50.5828 375.66C49.2135 373.44 47.3896 371.535 45.231 370.071C44.789 369.763 45.4063 369.125 45.8478 369.433C48.0907 370.961 49.9843 372.947 51.4037 375.261C52.8232 377.574 53.7363 380.161 54.0829 382.853C54.1457 383.366 53.2381 383.461 53.1757 382.951Z" fill="#2A2A2E"/>
<path d="M10.1993 363.746C11.0429 363.097 11.707 362.244 12.1284 361.267C12.5498 360.29 12.7147 359.222 12.6073 358.163C12.5372 357.652 13.4449 357.557 13.5146 358.065C13.6279 359.235 13.4446 360.414 12.9816 361.495C12.5186 362.575 11.7908 363.521 10.8655 364.245C10.7821 364.327 10.6733 364.379 10.5568 364.392C10.4404 364.404 10.3231 364.377 10.224 364.314C10.1811 364.281 10.1458 364.239 10.1208 364.191C10.0959 364.143 10.0817 364.09 10.0793 364.036C10.077 363.982 10.0865 363.928 10.1072 363.877C10.1279 363.827 10.1594 363.782 10.1993 363.746Z" fill="#2A2A2E"/>
<path d="M58.3594 311.04C58.4135 311.357 58.4676 311.675 58.5285 311.995C59.2792 316.252 60.4262 320.43 61.9544 324.474C62.0668 324.788 62.1861 325.105 62.3087 325.416C66.1734 335.206 72.0503 344.077 79.5592 351.454C82.6182 354.467 85.9177 357.227 89.4249 359.705C94.3136 363.164 99.9559 366.544 103.05 371.205C103.378 371.686 103.672 372.189 103.929 372.711L89.9904 400.912C89.9238 400.965 89.8641 401.02 89.7974 401.073L89.2967 402.217C89.1029 402.1 88.9051 401.975 88.7114 401.858C88.5986 401.79 88.489 401.717 88.3762 401.649C88.302 401.602 88.228 401.555 88.1576 401.517C88.1329 401.501 88.1083 401.485 88.0904 401.472C88.0202 401.434 87.96 401.391 87.8967 401.355C86.7887 400.657 85.6849 399.951 84.5854 399.236C84.5784 399.234 84.5784 399.234 84.5745 399.225C76.2139 393.759 68.3507 387.581 61.8904 380.454C61.6961 380.239 61.4947 380.023 61.3068 379.795C58.4352 376.592 55.8633 373.133 53.6236 369.46C52.4169 367.462 51.3266 365.397 50.3584 363.274C47.8737 357.789 46.4015 351.899 46.0128 345.89C45.2256 333.853 48.7963 321.406 57.6736 311.771C57.9009 311.524 58.1252 311.284 58.3594 311.04Z" fill="#828282"/>
<path d="M58.7159 311.232C54.8334 326.12 56.1712 341.823 62.7447 355.184C64.1119 358.151 65.9953 360.851 68.3071 363.159C70.7835 365.429 73.8277 366.986 77.1172 367.666C80.2679 368.412 83.6181 368.841 86.4468 370.275C87.8347 370.97 89.0385 371.983 89.9597 373.233C90.8809 374.482 91.4933 375.931 91.7469 377.463C92.439 381.195 91.5612 385.039 90.5585 388.782C89.4451 392.938 88.2161 397.244 89.2435 401.362C89.368 401.861 88.4742 402.069 88.3499 401.571C86.5624 394.405 91.2615 387.16 91.082 379.912C90.9982 376.53 89.7659 373.234 86.6252 371.359C83.8787 369.72 80.4247 369.275 77.2249 368.545C73.9921 367.917 70.9621 366.508 68.3994 364.439C65.9582 362.261 63.9543 359.638 62.4951 356.71C59.1503 350.258 57.0006 343.255 56.1499 336.038C55.1291 327.665 55.7105 319.173 57.8632 311.017C57.9973 310.503 58.8491 310.721 58.7159 311.232Z" fill="#2A2A2E"/>
<path d="M60.3411 350.961C54.6071 352.757 48.5242 350.608 46.1199 345.963C45.8831 345.506 46.7017 345.096 46.9389 345.554C49.1913 349.905 54.8205 351.857 60.1805 350.178C60.7446 350.001 60.902 350.785 60.3411 350.961Z" fill="#2A2A2E"/>
<path d="M75.4462 367.48C76.9142 365.265 77.9169 362.775 78.3932 360.161C78.8695 357.546 78.8096 354.863 78.2171 352.272C78.0947 351.773 78.9884 351.565 79.1107 352.064C79.7214 354.761 79.7776 357.555 79.2758 360.275C78.774 362.995 77.7247 365.584 76.1917 367.886C75.8914 368.355 75.1476 367.947 75.4462 367.48Z" fill="#2A2A2E"/>
<path d="M56.2711 328.02C57.3969 327.893 58.4809 327.519 59.4457 326.925C60.4105 326.331 61.2324 325.531 61.853 324.583C62.1467 324.112 62.8903 324.521 62.5984 324.989C61.9085 326.034 60.9996 326.916 59.9347 327.575C58.8699 328.233 57.6746 328.652 56.4317 328.803C56.1849 328.833 55.9546 328.746 55.9046 328.516C55.8909 328.402 55.9212 328.287 55.9893 328.195C56.0574 328.103 56.1583 328.04 56.2711 328.02Z" fill="#2A2A2E"/>
<path d="M100.163 122.261L123.886 147.451L179.103 167.692L185.738 155.365L143.247 132.77C143.247 132.77 124.09 112.756 112.725 108.633L100.163 122.261Z" fill="#A0616A"/>
<path d="M184.834 170.845C189.356 170.845 193.021 167.179 193.021 162.657C193.021 158.136 189.356 154.47 184.834 154.47C180.312 154.47 176.647 158.136 176.647 162.657C176.647 167.179 180.312 170.845 184.834 170.845Z" fill="#A0616A"/>
<path d="M118.572 110.033L101.615 125.005L101.535 125.025C93.652 127.038 82.2659 117.739 74.1026 109.584C71.4131 106.893 69.8458 103.281 69.7174 99.4785C69.5891 95.6759 70.9093 91.9665 73.4113 89.1001C75.2711 86.998 77.6819 85.4581 80.3712 84.6544C83.0604 83.8507 85.9208 83.8153 88.6291 84.5521L102.411 88.3541L118.572 110.033Z" fill="#3F3D56"/>
<path d="M137.535 407.408L149.221 407.407L154.78 362.333L137.533 362.334L137.535 407.408Z" fill="#A0616A"/>
<path d="M134.554 403.592L137.843 403.592L150.685 398.37L157.567 403.591H157.568C161.458 403.591 165.188 405.137 167.939 407.887C170.689 410.637 172.234 414.367 172.234 418.257V418.734L134.555 418.735L134.554 403.592Z" fill="#2F2E41"/>
<path d="M85.683 407.408L97.3688 407.407L102.928 362.333L85.6809 362.334L85.683 407.408Z" fill="#A0616A"/>
<path d="M82.7017 403.592L85.9908 403.592L98.8325 398.37L105.715 403.591H105.716C109.606 403.591 113.336 405.137 116.086 407.887C118.837 410.637 120.382 414.367 120.382 418.257V418.734L82.7023 418.735L82.7017 403.592Z" fill="#2F2E41"/>
<path d="M67.864 213.258C67.864 213.258 66.4995 229.633 69.9108 245.325C73.3221 261.017 73.3221 305.211 73.3221 305.211L80.827 391.329L103.342 389.283L109.482 245.325L131.315 293.766L129.268 300.588L131.994 302.294C131.994 302.294 129.95 315.598 131.315 315.598C132.679 315.598 136.09 317.645 136.09 317.645L133.361 387.918L156.558 387.236L164.746 288.307L155.876 231.679L155.194 220.763L152.124 220.889L150.56 216.328L147.689 208.482L67.864 213.258Z" fill="#2F2E41"/>
<path d="M66.6847 216.697L66.5631 216.527C60.069 207.435 69.8362 185.587 71.3093 182.42L65.1047 180.406L66.5018 168.53L67.1638 163.235L62.4216 158.493L62.4082 158.374L59.6792 134.495L55.7112 118.635C54.2161 112.639 54.3435 106.353 56.0803 100.423C57.8172 94.4928 61.1009 89.1316 65.5943 84.8897L74.7663 76.2418L85.913 59.7485H103.888L110.052 71.3904C116.027 72.7714 121.329 76.205 125.033 81.093C128.737 85.981 130.609 92.0136 130.323 98.1399L128.926 128.673L134.395 166.689L134.398 173.569L140.552 180.408L139.208 187.128L143.892 189.135L145.96 198.785C146.816 199.914 152.465 207.447 152.465 209.506C152.465 209.815 152.237 210.114 151.747 210.445C147.897 213.052 126.619 218.366 117.202 214.598C107.17 210.587 67.2937 216.604 66.8919 216.665L66.6847 216.697Z" fill="#3F3D56"/>
<path d="M214.097 418.489C214.098 418.595 214.077 418.701 214.037 418.799C213.996 418.897 213.937 418.987 213.862 419.062C213.787 419.137 213.698 419.197 213.6 419.238C213.502 419.279 213.397 419.3 213.29 419.301H22.0535C21.8381 419.301 21.6316 419.215 21.4794 419.063C21.3271 418.911 21.2416 418.704 21.2416 418.489C21.2416 418.274 21.3271 418.067 21.4794 417.915C21.6316 417.763 21.8381 417.677 22.0535 417.677H213.285C213.5 417.676 213.706 417.761 213.859 417.912C214.011 418.064 214.097 418.269 214.097 418.484V418.489Z" fill="#CCCCCC"/>
<path d="M97.2228 54.4244C110.371 54.4244 121.029 43.766 121.029 30.6182C121.029 17.4704 110.371 6.81201 97.2228 6.81201C84.075 6.81201 73.4166 17.4704 73.4166 30.6182C73.4166 43.766 84.075 54.4244 97.2228 54.4244Z" fill="#A0616A"/>
<path d="M99.5035 54.8098C95.8167 54.7722 92.1398 54.4197 88.513 53.7561C84.9224 52.929 77.0004 46.8032 74.8414 43.1844C73.2373 40.4956 72.2745 36.3367 71.7492 33.3215C71.0399 29.3311 71.1766 25.2361 72.1504 21.3019C73.1243 17.3676 74.9136 13.6817 77.4025 10.483C78.3619 9.14289 79.6657 8.08705 81.1759 7.42711C81.3095 7.3788 81.4468 7.3365 81.5854 7.30085C83.7745 6.78488 85.7594 5.62639 87.2853 3.97412C87.5816 3.63961 87.9016 3.32687 88.2428 3.03834C89.9546 1.66775 91.9665 0.721733 94.114 0.27763C97.5833 -0.555545 102.546 0.488515 108.864 3.38347C112.038 4.83795 115.561 4.43217 118.276 3.91614C118.429 3.8908 118.585 3.90576 118.73 3.95953C118.874 4.0133 119.002 4.10402 119.101 4.22264C120.222 5.33085 121.721 5.97367 123.296 6.02191C124.261 6.0892 125.239 7.45173 126.418 9.22603C126.685 9.62879 126.997 10.0988 127.224 10.3857L127.269 9.84699L127.799 10.463C128.633 11.431 129.208 12.5944 129.472 13.8446C129.735 15.0949 129.677 16.3914 129.304 17.6134C128.931 18.8354 128.255 19.9432 127.339 20.8336C126.423 21.724 125.296 22.368 124.064 22.7058C123.086 22.939 122.088 23.0718 121.083 23.1022C120.474 23.1412 119.844 23.1815 119.239 23.2704C117.296 23.6164 115.476 24.4603 113.956 25.7198C112.436 26.9792 111.269 28.6113 110.568 30.4565C110.403 30.883 110.142 31.2657 109.805 31.5751C109.468 31.8846 109.064 32.1125 108.626 32.2412C108.187 32.37 107.724 32.3962 107.273 32.3178C106.823 32.2394 106.396 32.0585 106.027 31.7891C105.412 31.2843 104.684 30.9358 103.905 30.7731C103.127 30.6104 102.32 30.6385 101.555 30.855C100.889 31.2029 100.364 31.7691 100.066 32.4587C99.7058 33.2262 99.1253 33.869 98.3985 34.3053C95.9199 35.5032 95.6071 41.0856 96.3653 45.7655C97.0962 50.2765 98.6863 53.5672 100.232 53.7678C101.422 53.922 101.556 54.0103 101.637 54.2235L101.71 54.4144L101.571 54.5877C101.436 54.7422 100.648 54.8098 99.5035 54.8098Z" fill="#2F2E41"/>
<path d="M216.289 235.299C239.571 235.299 258.445 216.425 258.445 193.142C258.445 169.86 239.571 150.986 216.289 150.986C193.006 150.986 174.132 169.86 174.132 193.142C174.132 216.425 193.006 235.299 216.289 235.299Z" fill="#FFCB74"/>
<path d="M212.608 209.665C212.517 209.665 212.425 209.663 212.333 209.658C211.525 209.619 210.734 209.406 210.016 209.032C209.298 208.659 208.669 208.135 208.172 207.496L201.528 198.954C200.614 197.777 200.205 196.286 200.389 194.807C200.574 193.329 201.338 191.984 202.513 191.068L202.751 190.883C203.928 189.969 205.419 189.56 206.898 189.744C208.377 189.929 209.722 190.692 210.639 191.867C210.937 192.25 211.315 192.565 211.746 192.789C212.177 193.013 212.652 193.142 213.137 193.165C213.623 193.194 214.109 193.114 214.561 192.933C215.013 192.752 215.419 192.473 215.751 192.117L229.241 177.876C230.267 176.796 231.679 176.167 233.169 176.126C234.658 176.086 236.102 176.638 237.185 177.661L237.404 177.868C238.485 178.894 239.115 180.307 239.155 181.796C239.196 183.286 238.644 184.731 237.62 185.813L216.686 207.91C216.162 208.465 215.529 208.906 214.828 209.208C214.127 209.51 213.372 209.665 212.608 209.665Z" fill="#2A2A2E"/>
<path d="M104.987 123.136L121.524 153.531L169.779 187.148L179.331 176.914L143.982 144.256C143.982 144.256 130.544 120.028 120.601 113.151L104.987 123.136Z" fill="#A0616A"/>
<path d="M176.602 191.923C181.123 191.923 184.789 188.258 184.789 183.736C184.789 179.215 181.123 175.549 176.602 175.549C172.08 175.549 168.415 179.215 168.415 183.736C168.415 188.258 172.08 191.923 176.602 191.923Z" fill="#A0616A"/>
<path d="M106.475 127.188L96.0758 102.229L99.8373 88.4357C100.586 85.7305 102.076 83.2886 104.139 81.3858C106.202 79.4831 108.757 78.1953 111.513 77.6681C115.255 76.9785 119.119 77.7355 122.324 79.7861C125.529 81.8366 127.836 85.0276 128.778 88.7139C131.627 99.896 133.814 114.433 128.061 120.186L128.003 120.244L106.475 127.188Z" fill="#3F3D56"/>
<path d="M338.421 77.2292C338.383 77.2292 338.345 77.2283 338.307 77.2264C337.975 77.2103 337.65 77.1224 337.354 76.9688C337.059 76.8153 336.8 76.5996 336.596 76.3367L333.862 72.8227C333.486 72.3385 333.318 71.725 333.394 71.1168C333.47 70.5086 333.784 69.9554 334.267 69.5785L334.365 69.5023C334.85 69.1264 335.463 68.958 336.071 69.0338C336.68 69.1097 337.233 69.4237 337.61 69.907C337.733 70.0649 337.888 70.1944 338.066 70.2866C338.243 70.3788 338.438 70.4316 338.638 70.4412C338.838 70.4529 339.038 70.4203 339.224 70.3458C339.41 70.2712 339.577 70.1565 339.713 70.0099L345.263 64.1514C345.685 63.707 346.266 63.4481 346.879 63.4315C347.492 63.4149 348.086 63.642 348.531 64.0629L348.622 64.1482C349.066 64.5702 349.325 65.1513 349.342 65.7641C349.359 66.3769 349.132 66.9713 348.711 67.4168L340.098 76.5073C339.882 76.7354 339.622 76.9171 339.334 77.0412C339.045 77.1654 338.735 77.2293 338.421 77.2292Z" fill="#2A2A2E"/>
<path d="M468.691 334.045C473.568 337.356 478.99 341.081 480.562 347.124C480.923 348.415 481.02 349.766 480.846 351.095C480.672 352.424 480.231 353.704 479.549 354.858C478.298 356.944 476.433 358.583 474.614 360.163C472.453 362.04 470.275 363.884 468.598 366.227C467.83 367.3 469.605 368.323 470.365 367.26C473.474 362.916 478.639 360.456 481.375 355.794C484.61 350.281 482.451 343.742 478.442 339.279C475.94 336.494 472.802 334.367 469.724 332.277C468.631 331.535 467.606 333.308 468.691 334.045Z" fill="#828282"/>
<path d="M485.747 334.045C490.625 337.356 496.047 341.081 497.619 347.124C497.98 348.415 498.077 349.766 497.902 351.095C497.728 352.424 497.287 353.704 496.606 354.858C495.354 356.944 493.489 358.583 491.67 360.163C489.509 362.04 487.331 363.884 485.655 366.227C484.887 367.3 486.661 368.323 487.422 367.26C490.53 362.916 495.696 360.456 498.431 355.794C501.667 350.281 499.508 343.742 495.498 339.279C492.996 336.494 489.859 334.367 486.78 332.277C485.688 331.535 484.662 333.308 485.747 334.045Z" fill="#828282"/>
<path d="M323.389 184.051C324.474 183.315 323.449 181.542 322.356 182.284C319.278 184.374 316.14 186.501 313.638 189.286C309.629 193.749 307.47 200.288 310.705 205.801C313.441 210.462 318.606 212.923 321.714 217.267C322.475 218.33 324.25 217.307 323.482 216.234C321.805 213.891 319.627 212.046 317.466 210.17C315.647 208.59 313.782 206.951 312.531 204.865C311.849 203.711 311.408 202.43 311.234 201.101C311.06 199.772 311.156 198.422 311.518 197.131C313.09 191.088 318.512 187.362 323.389 184.051Z" fill="#828282"/>
<path d="M306.333 184.051C307.418 183.315 306.392 181.542 305.3 182.284C302.221 184.374 299.084 186.501 296.582 189.286C292.572 193.749 290.413 200.288 293.648 205.801C296.384 210.462 301.549 212.923 304.658 217.267C305.419 218.33 307.193 217.307 306.425 216.234C304.748 213.891 302.57 212.046 300.409 210.17C298.59 208.59 296.726 206.951 295.474 204.865C294.792 203.711 294.351 202.43 294.177 201.101C294.003 199.772 294.1 198.422 294.461 197.131C296.033 191.088 301.455 187.362 306.333 184.051Z" fill="#828282"/>
</g>
<defs>
<clipPath id="clip0_21_259">
<rect width="500" height="419.301" fill="white"/>
</clipPath>
</defs>
</svg>
