<svg width="64" height="64" viewBox="0 0 64 64" fill="none" xmlns="http://www.w3.org/2000/svg">
<path d="M63.5 4C63.5 2.327 62.1735 0.5 60 0.5H4C1.83 0.5 0.5 2.3165 0.5 4V60C0.5 62.1735 2.32 63.5 4 63.5H60C61.673 63.5 63.5 62.1735 63.5 60V4ZM53 43.375C53 44.824 51.824 46 50.375 46H34.625C33.176 46 32 44.824 32 43.375C32 41.926 33.176 40.75 34.625 40.75H50.375C51.824 40.75 53 41.926 53 43.375ZM11.798 41.4955C11.2695 41.023 11 40.372 11 39.714C11 38.4015 12.064 37.327 13.3905 37.327C13.9575 37.327 14.5245 37.5265 14.983 37.9325L17.594 40.26L23.404 33.9075C23.88 33.393 24.5205 33.134 25.168 33.134C26.5015 33.134 27.562 34.2085 27.562 35.521C27.562 36.0915 27.3555 36.669 26.9355 37.1275L19.5295 45.223C19.0605 45.7375 18.413 46 17.7655 46C17.1985 46 16.628 45.8005 16.173 45.3945L11.798 41.4955ZM53 32.007C53 33.456 51.824 34.632 50.375 34.632H34.625C33.176 34.632 32 33.456 32 32.007C32 30.558 33.176 29.382 34.625 29.382H50.375C51.824 29.382 53 30.558 53 32.007ZM11.798 26.3615V26.365C11.2695 25.8925 11 25.238 11 24.5835C11 23.2675 12.064 22.1965 13.3905 22.1965C13.9575 22.1965 14.5245 22.396 14.983 22.802L17.594 25.126L23.404 18.7735C23.88 18.259 24.5205 18 25.168 18C26.5015 18 27.562 19.078 27.562 20.387C27.562 20.961 27.3555 21.5385 26.9355 21.997L19.5295 30.0925C19.0605 30.607 18.413 30.866 17.7655 30.866C17.1985 30.866 16.628 30.6665 16.173 30.2605L11.798 26.3615ZM53 20.625C53 22.074 51.824 23.25 50.375 23.25H34.625C33.176 23.25 32 22.074 32 20.625C32 19.176 33.176 18 34.625 18H50.375C51.824 18 53 19.176 53 20.625Z" fill="#CF8811"/>
</svg>
